<?xml version="1.0" encoding="utf-8"?>
<!-- Generator: Adobe Illustrator 23.0.5, SVG Export Plug-In . SVG Version: 6.00 Build 0)  -->
<svg version="1.1" id="Capa_1" xmlns="http://www.w3.org/2000/svg" xmlns:xlink="http://www.w3.org/1999/xlink" x="0px" y="0px"
	 viewBox="0 0 268.31 75.58" style="enable-background:new 0 0 268.31 75.58;" xml:space="preserve">
<style type="text/css">
	.st0{fill:#FFFFFF;}
	.st1{stroke:#FFFFFF;stroke-miterlimit:10;}
	.st2{fill:#5BA799;}
</style>
<g>
	<path class="st0" d="M11.01,64.39V25.87h8.87c6.49,0,9.74,3.77,9.74,11.31c0,2.27-0.35,4.2-1.06,5.79
		c-0.7,1.59-1.94,2.87-3.71,3.84l5.95,17.58h-5.84l-5.14-16.45h-3.3v16.45H11.01z M16.52,31.06v12.01h3.14
		c0.97,0,1.75-0.14,2.33-0.41c0.58-0.27,1.03-0.66,1.35-1.16c0.29-0.5,0.49-1.13,0.6-1.87c0.11-0.74,0.16-1.6,0.16-2.57
		s-0.05-1.83-0.16-2.57c-0.11-0.74-0.32-1.38-0.65-1.92c-0.69-1.01-1.98-1.51-3.9-1.51H16.52z"/>
	<path class="st0" d="M49.69,52.76H38.76v3.73c0,0.87,0.24,1.53,0.73,2c0.49,0.47,1.14,0.7,1.97,0.7c1.05,0,1.74-0.31,2.08-0.92
		c0.34-0.61,0.55-1.23,0.62-1.84h5.52c0,2.42-0.74,4.36-2.22,5.84c-0.72,0.76-1.59,1.35-2.6,1.79c-1.01,0.43-2.15,0.65-3.41,0.65
		c-1.73,0-3.2-0.36-4.41-1.08c-1.21-0.72-2.14-1.68-2.79-2.87c-0.4-0.72-0.67-1.55-0.81-2.49c-0.14-0.94-0.22-1.97-0.22-3.08v-9.04
		c0-1.12,0.07-2.15,0.22-3.08c0.14-0.94,0.41-1.77,0.81-2.49c0.65-1.19,1.58-2.15,2.79-2.87c1.21-0.72,2.68-1.08,4.41-1.08
		c1.26,0,2.41,0.22,3.44,0.65c1.03,0.43,1.9,1.03,2.62,1.79c1.44,1.62,2.16,3.66,2.16,6.11V52.76z M38.76,48.43h5.41v-3.14
		c0-1.05-0.24-1.83-0.73-2.35c-0.49-0.52-1.15-0.78-1.97-0.78c-0.83,0-1.49,0.26-1.97,0.78c-0.49,0.52-0.73,1.31-0.73,2.35V48.43z"
		/>
	<path class="st0" d="M59.59,56.49c0,0.87,0.24,1.53,0.73,2c0.49,0.47,1.14,0.7,1.97,0.7c1.05,0,1.74-0.31,2.08-0.92
		c0.34-0.61,0.55-1.23,0.62-1.84h5.52c0,2.42-0.74,4.36-2.22,5.84c-0.72,0.76-1.59,1.35-2.6,1.79c-1.01,0.43-2.15,0.65-3.41,0.65
		c-1.73,0-3.2-0.36-4.41-1.08c-1.21-0.72-2.14-1.68-2.79-2.87c-0.4-0.72-0.67-1.55-0.81-2.49c-0.14-0.94-0.22-1.97-0.22-3.08v-9.04
		c0-1.12,0.07-2.15,0.22-3.08c0.14-0.94,0.41-1.77,0.81-2.49c0.65-1.19,1.58-2.15,2.79-2.87c1.21-0.72,2.68-1.08,4.41-1.08
		c1.26,0,2.41,0.22,3.44,0.65c1.03,0.43,1.9,1.03,2.62,1.79c1.44,1.62,2.16,3.73,2.16,6.33H65c0-1.12-0.24-1.94-0.73-2.46
		c-0.49-0.52-1.15-0.78-1.97-0.78c-0.83,0-1.49,0.26-1.97,0.78c-0.49,0.52-0.73,1.31-0.73,2.35V56.49z"/>
	<path class="st0" d="M73.28,46.16c0-1.12,0.07-2.15,0.22-3.08c0.14-0.94,0.41-1.77,0.81-2.49c0.65-1.19,1.58-2.15,2.79-2.87
		c1.21-0.72,2.68-1.08,4.41-1.08s3.2,0.36,4.41,1.08c1.21,0.72,2.14,1.68,2.79,2.87c0.4,0.72,0.67,1.55,0.81,2.49
		c0.14,0.94,0.22,1.97,0.22,3.08v9.04c0,1.12-0.07,2.15-0.22,3.08c-0.14,0.94-0.42,1.77-0.81,2.49c-0.65,1.19-1.58,2.15-2.79,2.87
		c-1.21,0.72-2.68,1.08-4.41,1.08s-3.2-0.36-4.41-1.08c-1.21-0.72-2.14-1.68-2.79-2.87c-0.4-0.72-0.67-1.55-0.81-2.49
		c-0.14-0.94-0.22-1.97-0.22-3.08V46.16z M78.79,56.06c0,1.05,0.24,1.83,0.73,2.35c0.49,0.52,1.14,0.78,1.97,0.78
		c0.83,0,1.49-0.26,1.97-0.78c0.49-0.52,0.73-1.31,0.73-2.35V45.29c0-1.05-0.24-1.83-0.73-2.35c-0.49-0.52-1.15-0.78-1.97-0.78
		c-0.83,0-1.49,0.26-1.97,0.78c-0.49,0.52-0.73,1.31-0.73,2.35V56.06z"/>
	<path class="st0" d="M93.78,64.39V36.96h5.52v2.65h0.11c0.58-0.87,1.27-1.58,2.08-2.14c0.81-0.56,1.85-0.84,3.11-0.84
		c1.19,0,2.18,0.29,2.98,0.87c0.79,0.58,1.44,1.21,1.95,1.89c0.69-0.76,1.44-1.41,2.27-1.95c0.83-0.54,1.98-0.81,3.46-0.81
		c0.69,0,1.39,0.12,2.11,0.35c0.72,0.23,1.37,0.62,1.95,1.16c0.58,0.54,1.05,1.24,1.41,2.08c0.36,0.85,0.54,1.88,0.54,3.11v21.05
		h-5.52V45.4c0-1.01-0.23-1.8-0.7-2.38c-0.47-0.58-1.14-0.87-2-0.87c-1.05,0-1.77,0.32-2.16,0.97c-0.4,0.65-0.59,1.59-0.59,2.81
		v18.45h-5.52V45.4c0-1.01-0.23-1.8-0.7-2.38c-0.47-0.58-1.14-0.87-2-0.87c-1.05,0-1.77,0.32-2.16,0.97c-0.4,0.65-0.6,1.59-0.6,2.81
		v18.45H93.78z"/>
	<path class="st0" d="M125.81,64.39V36.96h5.52v2.65h0.11c0.58-0.87,1.27-1.58,2.08-2.14c0.81-0.56,1.85-0.84,3.11-0.84
		c1.19,0,2.18,0.29,2.98,0.87c0.79,0.58,1.44,1.21,1.95,1.89c0.69-0.76,1.44-1.41,2.27-1.95c0.83-0.54,1.98-0.81,3.46-0.81
		c0.69,0,1.39,0.12,2.11,0.35c0.72,0.23,1.37,0.62,1.95,1.16c0.58,0.54,1.05,1.24,1.41,2.08c0.36,0.85,0.54,1.88,0.54,3.11v21.05
		h-5.52V45.4c0-1.01-0.23-1.8-0.7-2.38c-0.47-0.58-1.14-0.87-2-0.87c-1.05,0-1.77,0.32-2.16,0.97c-0.4,0.65-0.59,1.59-0.59,2.81
		v18.45h-5.52V45.4c0-1.01-0.23-1.8-0.7-2.38c-0.47-0.58-1.14-0.87-2-0.87c-1.05,0-1.77,0.32-2.16,0.97c-0.4,0.65-0.6,1.59-0.6,2.81
		v18.45H125.81z"/>
	<path class="st0" d="M173.8,52.76h-10.93v3.73c0,0.87,0.24,1.53,0.73,2c0.49,0.47,1.14,0.7,1.97,0.7c1.05,0,1.74-0.31,2.08-0.92
		c0.34-0.61,0.55-1.23,0.62-1.84h5.52c0,2.42-0.74,4.36-2.22,5.84c-0.72,0.76-1.59,1.35-2.6,1.79c-1.01,0.43-2.15,0.65-3.41,0.65
		c-1.73,0-3.2-0.36-4.41-1.08c-1.21-0.72-2.14-1.68-2.79-2.87c-0.4-0.72-0.67-1.55-0.81-2.49c-0.14-0.94-0.22-1.97-0.22-3.08v-9.04
		c0-1.12,0.07-2.15,0.22-3.08c0.14-0.94,0.41-1.77,0.81-2.49c0.65-1.19,1.58-2.15,2.79-2.87c1.21-0.72,2.68-1.08,4.41-1.08
		c1.26,0,2.41,0.22,3.44,0.65c1.03,0.43,1.9,1.03,2.62,1.79c1.44,1.62,2.16,3.66,2.16,6.11V52.76z M162.87,48.43h5.41v-3.14
		c0-1.05-0.24-1.83-0.73-2.35c-0.49-0.52-1.15-0.78-1.97-0.78c-0.83,0-1.49,0.26-1.97,0.78c-0.49,0.52-0.73,1.31-0.73,2.35V48.43z"
		/>
	<path class="st0" d="M177.85,64.39V36.96h5.52v2.65h0.11c0.58-0.87,1.27-1.58,2.08-2.14c0.81-0.56,1.85-0.84,3.11-0.84
		c0.68,0,1.37,0.12,2.06,0.35c0.68,0.23,1.3,0.62,1.84,1.16s0.97,1.24,1.3,2.08c0.32,0.85,0.49,1.88,0.49,3.11v21.05h-5.52V45.4
		c0-1.01-0.23-1.8-0.7-2.38c-0.47-0.58-1.14-0.87-2-0.87c-1.05,0-1.77,0.32-2.16,0.97c-0.4,0.65-0.6,1.59-0.6,2.81v18.45H177.85z"/>
	<path class="st0" d="M209.88,64.39V61.9c-0.36,0.4-0.7,0.77-1.03,1.11s-0.69,0.64-1.08,0.89c-0.4,0.25-0.85,0.45-1.35,0.6
		c-0.51,0.14-1.1,0.22-1.79,0.22c-2.31,0-3.91-0.87-4.81-2.6c-0.32-0.61-0.56-1.37-0.7-2.27c-0.14-0.9-0.22-2.11-0.22-3.62V45.78
		c0-1.98,0.05-3.44,0.16-4.38c0.22-1.8,1.06-3.16,2.54-4.06c0.68-0.47,1.71-0.7,3.08-0.7c1.08,0,2.05,0.24,2.89,0.73
		c0.85,0.49,1.58,1.18,2.19,2.08h0.11V25.87h5.52v38.52H209.88z M204.42,55.46c0,1.12,0.22,2.02,0.65,2.71
		c0.43,0.69,1.12,1.03,2.06,1.03c0.83,0,1.5-0.32,2-0.95c0.5-0.63,0.76-1.45,0.76-2.46V45.13c0-0.87-0.26-1.58-0.78-2.14
		c-0.52-0.56-1.18-0.84-1.97-0.84c-1.05,0-1.76,0.32-2.14,0.97c-0.38,0.65-0.57,1.41-0.57,2.27V55.46z"/>
</g>
<g id="zhAdHw_5_">
	<g>
		<path class="st1" d="M226.47,42.32c-0.17-0.51-0.33-1.02-0.49-1.53c-1.03-3.16-2.05-6.32-3.08-9.48
			c-0.72-2.21-1.43-4.43-2.16-6.63c-0.92-2.77,0.57-5.68,3.33-6.5c2.62-0.78,5.4,0.69,6.24,3.3c0.86,2.66,1.72,5.31,2.58,7.97
			c0.02,0.05,0.04,0.1,0.06,0.15c2.14-1.48,4.27-1.46,6.4,0.04c1.12-1.2,2.51-1.81,4.18-1.68c1.66,0.13,2.94,0.94,3.87,2.3
			c0.27-0.18,0.53-0.38,0.8-0.53c2.77-1.59,6.32-0.22,7.3,2.83c0.72,2.23,1.45,4.47,2.17,6.7c0.57,1.76,1.15,3.52,1.72,5.29
			c0.39,1.2,0.58,2.44,0.61,3.7c0.04,2.19-0.4,4.26-1.38,6.22c-0.93,1.85-2.24,3.37-3.93,4.57c-1.26,0.89-2.65,1.5-4.12,1.97
			c-1.87,0.59-3.73,1.21-5.59,1.81c-1.2,0.39-2.4,0.8-3.64,1.05c-2.27,0.46-4.51,0.43-6.72-0.36c-1.09-0.39-2.09-0.97-3.04-1.62
			c-1.96-1.32-3.78-2.8-5.39-4.53c-1.32-1.41-2.46-2.94-3.23-4.73c-0.49-1.15-0.81-2.35-0.84-3.61c-0.04-1.71,0.5-3.22,1.54-4.55
			c0.69-0.88,1.57-1.52,2.56-2.02C226.29,42.4,226.38,42.36,226.47,42.32z M227.48,45.45c-0.03,0.01-0.05,0.01-0.07,0.03
			c-0.1,0.06-0.21,0.12-0.31,0.19c-1.15,0.77-1.76,1.84-1.76,3.24c0,0.96,0.3,1.85,0.7,2.71c0.62,1.33,1.5,2.48,2.49,3.54
			c1.68,1.78,3.59,3.28,5.66,4.57c1.28,0.8,2.68,1.19,4.19,1.2c1.19,0.01,2.34-0.18,3.47-0.54c1.88-0.59,3.76-1.2,5.63-1.81
			c1.14-0.37,2.28-0.72,3.4-1.15c1.46-0.56,2.72-1.45,3.69-2.69c2.05-2.61,2.59-5.57,1.83-8.77c-0.25-1.06-0.65-2.09-0.99-3.13
			c-1-3.09-2.01-6.18-3.01-9.27c-0.29-0.9-1.2-1.44-2.08-1.24c-1.08,0.24-1.69,1.29-1.35,2.35c0.18,0.57,0.38,1.14,0.55,1.71
			c0.31,1.03-0.47,2.06-1.55,2.06c-0.75,0-1.33-0.45-1.58-1.21c-0.52-1.62-1.04-3.23-1.58-4.84c-0.27-0.83-1.15-1.35-1.98-1.2
			c-1.13,0.21-1.78,1.27-1.43,2.37c0.38,1.2,0.78,2.4,1.16,3.59c0.27,0.86-0.19,1.75-1.04,2.03c-0.84,0.28-1.74-0.17-2.03-1.01
			c-0.08-0.24-0.16-0.49-0.24-0.73c-0.49-1.5-0.97-3-1.47-4.5c-0.28-0.84-1.19-1.34-2.03-1.16c-1.1,0.24-1.71,1.29-1.36,2.36
			c0.41,1.28,0.83,2.56,1.24,3.84c0.09,0.27,0.1,0.55,0.03,0.83c-0.17,0.74-0.77,1.24-1.51,1.27c-0.73,0.04-1.38-0.42-1.62-1.13
			c-0.22-0.66-0.43-1.32-0.64-1.98c-0.75-2.32-1.51-4.64-2.26-6.96c-0.81-2.5-1.63-5.01-2.44-7.51c-0.31-0.97-1.31-1.51-2.27-1.21
			c-0.96,0.3-1.49,1.32-1.18,2.28c0.4,1.24,0.8,2.48,1.21,3.73c0.97,2.98,1.94,5.96,2.91,8.94c1.19,3.65,2.37,7.3,3.55,10.94
			c0.09,0.27,0.13,0.54,0.09,0.82c-0.1,0.75-0.69,1.3-1.49,1.39c-0.68,0.07-1.39-0.39-1.63-1.06c-0.13-0.39-0.25-0.78-0.38-1.17
			C227.86,46.59,227.67,46.02,227.48,45.45z"/>
		<path class="st2" d="M217.82,16.21c-0.56,0-0.98-0.2-1.3-0.59c-1.02-1.24-2.04-2.47-3.06-3.72c-0.81-0.99-0.31-2.37,0.93-2.61
			c0.58-0.11,1.09,0.08,1.47,0.53c0.94,1.12,1.86,2.26,2.79,3.39c0.12,0.14,0.23,0.28,0.35,0.42c0.72,0.93,0.26,2.26-0.89,2.53
			C218,16.2,217.88,16.2,217.82,16.21z"/>
		<path class="st2" d="M231.59,15.69c-0.68,0-1.26-0.4-1.49-1.04c-0.23-0.63-0.04-1.34,0.48-1.77c1.1-0.91,2.21-1.82,3.32-2.73
			c0.15-0.12,0.3-0.25,0.45-0.37c0.7-0.55,1.67-0.46,2.23,0.2c0.56,0.67,0.49,1.64-0.19,2.23c-0.58,0.5-1.19,0.98-1.78,1.47
			c-0.66,0.54-1.31,1.08-1.97,1.62C232.32,15.57,232.01,15.69,231.59,15.69z"/>
		<path class="st2" d="M214.84,23.22c-1.23-0.12-2.65-0.26-4.08-0.4c-0.23-0.02-0.45-0.04-0.68-0.07c-0.87-0.11-1.48-0.91-1.36-1.78
			c0.11-0.86,0.93-1.46,1.8-1.36c1,0.11,2,0.2,3,0.3c0.61,0.06,1.22,0.11,1.82,0.18c0.87,0.1,1.48,0.88,1.39,1.75
			C216.64,22.67,215.89,23.3,214.84,23.22z"/>
		<path class="st2" d="M223,11.24c0.1-1.03,0.22-2.21,0.34-3.38c0.05-0.48,0.08-0.97,0.14-1.45c0.1-0.76,0.77-1.35,1.55-1.35
			c0.8-0.01,1.48,0.55,1.57,1.33c0.04,0.37-0.01,0.75-0.05,1.12c-0.09,1.03-0.2,2.06-0.3,3.08c-0.04,0.4-0.06,0.8-0.13,1.19
			c-0.14,0.84-0.92,1.39-1.76,1.28C223.53,12.97,222.94,12.23,223,11.24z"/>
		<path class="st0" d="M227.48,45.45c0.19,0.57,0.37,1.14,0.56,1.71c0.13,0.39,0.25,0.78,0.38,1.17c0.23,0.67,0.95,1.13,1.63,1.06
			c0.8-0.08,1.39-0.64,1.49-1.39c0.04-0.29-0.01-0.56-0.09-0.82c-1.18-3.65-2.37-7.3-3.55-10.94c-0.97-2.98-1.94-5.96-2.91-8.94
			c-0.4-1.24-0.81-2.48-1.21-3.73c-0.31-0.96,0.22-1.98,1.18-2.28c0.96-0.3,1.96,0.24,2.27,1.21c0.81,2.51,1.63,5.01,2.44,7.51
			c0.75,2.32,1.51,4.64,2.26,6.96c0.21,0.66,0.43,1.32,0.64,1.98c0.24,0.71,0.89,1.17,1.62,1.13c0.74-0.04,1.33-0.54,1.51-1.27
			c0.06-0.28,0.05-0.55-0.03-0.83c-0.41-1.28-0.83-2.56-1.24-3.84c-0.35-1.08,0.26-2.12,1.36-2.36c0.84-0.18,1.75,0.32,2.03,1.16
			c0.5,1.5,0.98,3,1.47,4.5c0.08,0.24,0.16,0.49,0.24,0.73c0.29,0.84,1.19,1.29,2.03,1.01c0.85-0.28,1.31-1.18,1.04-2.03
			c-0.38-1.2-0.78-2.39-1.16-3.59c-0.35-1.1,0.3-2.16,1.43-2.37c0.83-0.15,1.71,0.37,1.98,1.2c0.53,1.61,1.05,3.23,1.58,4.84
			c0.25,0.76,0.83,1.21,1.58,1.21c1.08,0,1.85-1.03,1.55-2.06c-0.17-0.57-0.37-1.14-0.55-1.71c-0.33-1.05,0.28-2.11,1.35-2.35
			c0.88-0.19,1.79,0.34,2.08,1.24c1,3.09,2.01,6.18,3.01,9.27c0.34,1.04,0.73,2.07,0.99,3.13c0.76,3.2,0.22,6.15-1.83,8.77
			c-0.97,1.24-2.23,2.13-3.69,2.69c-1.12,0.43-2.26,0.78-3.4,1.15c-1.87,0.61-3.75,1.22-5.63,1.81c-1.13,0.35-2.28,0.55-3.47,0.54
			c-1.51-0.02-2.91-0.41-4.19-1.2c-2.07-1.29-3.98-2.79-5.66-4.57c-1-1.06-1.88-2.21-2.49-3.54c-0.4-0.86-0.7-1.75-0.7-2.71
			c0-1.39,0.61-2.46,1.76-3.24c0.1-0.07,0.2-0.13,0.31-0.19C227.43,45.46,227.45,45.46,227.48,45.45z"/>
	</g>
</g>
</svg>
